<?xml version="1.0" standalone="no"?>
<!DOCTYPE svg PUBLIC "-//W3C//DTD SVG 20010904//EN"
 "http://www.w3.org/TR/2001/REC-SVG-20010904/DTD/svg10.dtd">
<svg version="1.0" xmlns="http://www.w3.org/2000/svg"
 width="225.000000pt" height="225.000000pt" viewBox="0 0 225.000000 225.000000"
 preserveAspectRatio="xMidYMid meet">

<g transform="translate(0.000000,225.000000) scale(0.100000,-0.100000)"
fill="#000000" stroke="none">
<path d="M1306 1852 c-209 -203 -383 -379 -388 -391 l-8 -22 -29 20 c-90 64
-219 55 -287 -21 -28 -30 -54 -82 -54 -107 0 -31 -13 -32 -65 -6 -99 51 -210
23 -271 -67 -51 -76 -52 -170 -3 -239 10 -15 19 -29 19 -32 0 -2 -17 -7 -38
-11 -49 -7 -112 -53 -143 -103 -36 -57 -34 -151 4 -215 29 -50 86 -91 145
-103 l33 -7 -22 -34 c-32 -52 -40 -101 -28 -163 15 -74 82 -142 157 -161 61
-14 126 -2 173 31 l28 20 6 -28 c26 -129 161 -212 280 -173 72 24 144 113 145
178 0 27 1 27 44 -2 93 -63 228 -33 293 65 24 37 28 52 28 118 0 63 -4 82 -22
108 -13 17 -23 34 -23 37 0 3 21 11 47 18 71 17 137 88 152 159 12 62 4 111
-28 162 l-21 35 24 9 c13 4 193 172 399 373 l376 365 6 51 c9 66 -15 161 -58
232 -50 83 -166 188 -256 230 -64 31 -88 37 -156 40 l-80 3 -379 -369z m589
249 c134 -66 253 -221 260 -339 3 -45 2 -49 -51 -99 -31 -29 -61 -53 -68 -53
-8 0 -20 -8 -27 -17 -13 -16 -12 -17 4 -4 15 12 17 12 12 -1 -3 -8 -90 -96
-192 -194 -102 -98 -236 -228 -297 -287 l-111 -108 -197 -60 c-224 -68 -219
-68 -298 11 -76 76 -76 69 -1 293 l67 198 359 350 360 350 56 -3 c38 -3 79
-15 124 -37z m-1078 -716 c13 -9 30 -30 38 -47 12 -29 6 -52 -90 -339 -57
-170 -101 -309 -98 -309 4 0 149 43 324 95 348 105 342 104 379 42 62 -101
-48 -217 -154 -162 -20 11 -61 15 -144 15 l-117 0 80 -80 c56 -56 91 -84 117
-91 64 -17 100 -92 74 -154 -25 -60 -101 -91 -158 -64 -26 11 -68 67 -68 90 0
8 -38 52 -85 99 l-85 85 0 -115 c0 -81 4 -122 14 -135 23 -35 27 -72 11 -113
-37 -91 -166 -98 -211 -11 -18 35 -18 77 1 109 10 18 14 60 15 145 l0 120 -78
-78 c-52 -52 -82 -91 -92 -119 -17 -49 -67 -88 -112 -88 -61 0 -118 59 -118
123 0 40 41 91 86 105 28 9 65 38 119 92 l80 80 -120 0 c-85 -1 -127 -5 -145
-15 -77 -44 -170 15 -170 108 0 69 75 125 143 106 20 -5 39 -14 42 -19 4 -6
61 -10 128 -10 l122 0 -84 84 c-50 50 -94 86 -110 89 -38 8 -79 53 -87 94 -8
42 14 95 48 117 68 43 166 4 183 -72 3 -17 38 -60 85 -107 l80 -80 0 116 c0
87 -4 124 -16 148 -29 58 1 136 61 162 27 12 81 4 112 -16z"/>
</g>
</svg>
